<svg xmlns="http://www.w3.org/2000/svg" viewBox="0 0 466.24 273.09"><defs><style>.cls-1{fill:#010101;}.cls-2{fill:#231f20;}</style></defs><title>Asset 4</title><g id="Layer_2" data-name="Layer 2"><g id="Layer_1-2" data-name="Layer 1"><path class="cls-1" d="M466.24,174.8c-28.54.71-53.6,2.38-80.22-1.65-16.8-2.54-30.95-9.74-37.26-27.14A47,47,0,0,1,346,130.08Q346,66.68,346,3.26A3.83,3.83,0,0,1,347.07,0h52.45c1.16,2.84.6,5.42.61,7.92q.06,48.33,0,96.67c0,1.8-.05,3.61,0,5.41.46,13,6.68,19.37,19.71,19.54,13.66.19,27.32,0,41,.07,1.79,0,3.59.2,5.38.31Z"/><path class="cls-1" d="M4.38,2.15c4.45-1,8.32-.54,12.15-.55q44.47-.08,89,0c12.18,0,24.17,1.29,35.66,5.69,16.61,6.36,26.3,18.48,26.52,36.15.54,43.55.18,87.11.18,131.21H114.71c-1.73-2-.89-4.4-.89-6.62q-.09-48,0-95.93c0-2.58.09-5.17-.1-7.73-.73-10-5.93-16-16-16.51C84.86,47.22,72,47.7,58.38,47.7v129h-54Z"/><path class="cls-1" d="M338,28.63c-1.89-10-7.66-17.16-17-21.47-9.1-4.22-18.8-5.38-28.61-5.49-18.56-.22-37.12-.09-55.68-.1H176.55V174.76h53.68V121.59c2.71-1.6,4.82-1.13,6.84-1.13q22.82-.06,45.63,0c7.48,0,15,.17,22.38-1,19.77-3.16,31.57-10.36,33.89-30.76C341.23,68.73,341.79,48.58,338,28.63Zm-53,45.57h-54.4V47.68c14.82,0,29.41-.31,44,.14,6.71.2,10.05,4.33,10.37,11.06C285.23,63.7,285.05,68.54,285.05,74.2Z"/><path class="cls-2" d="M2.52,249a2.4,2.4,0,0,1-1.66-.9A2.64,2.64,0,0,1,0,246.28c0-1.8.07-3.73.2-5.79a25.23,25.23,0,0,1,1.19-6.15,19.08,19.08,0,0,1,3.14-5.86,19.36,19.36,0,0,1,6.06-4.93,36.3,36.3,0,0,1,9.9-3.44,70.12,70.12,0,0,1,14.66-1.3h11v12.58H40.91l-2.78,0c-1.24,0-2.63.09-4.17.2s-3.12.27-4.74.47a33.83,33.83,0,0,0-4.46.82,14.87,14.87,0,0,0-3.41,1.29,2.56,2.56,0,0,0-1.49,1.89.55.55,0,0,1-.13.3c-.09.11-.11.19-.07.23H36.08q10.05,0,10.06,7.55v13.17q0,4.56-2.62,6.69c-1.74,1.41-4.36,2.11-7.84,2.11H0V253.76H31.44V249Z"/><path class="cls-2" d="M121.17,219.61a9.8,9.8,0,0,1,4.3,2.35,8.29,8.29,0,0,1,2.15,3.9,22,22,0,0,1,.6,5.4v7.48a21.87,21.87,0,0,1-.6,5.43,8.29,8.29,0,0,1-2.15,3.87,9.8,9.8,0,0,1-4.3,2.35,25.73,25.73,0,0,1-7,.79h-16v15H83.54V218.81h30.64A25.69,25.69,0,0,1,121.17,219.61Zm-7.85,19.13V235a4.33,4.33,0,0,0-.73-2.68,3.63,3.63,0,0,0-2.78-1.09H98.23v7.48Z"/><path class="cls-2" d="M198.12,266.14H182.89q-17.28,0-17.28-12.44V231.26q0-12.45,17.28-12.45h15.23q17.26,0,17.27,12.45V253.7Q215.39,266.15,198.12,266.14Zm-2.39-34.88H185.27q-4.7.33-5,4.7v13q.27,4.37,5,4.7h10.46c3.14-.22,4.79-1.79,5-4.7V236C200.52,233.05,198.87,231.48,195.73,231.26Z"/><path class="cls-2" d="M290.42,219.61a9.74,9.74,0,0,1,4.3,2.35,8.31,8.31,0,0,1,2.16,3.9,22.48,22.48,0,0,1,.59,5.4v7.48a24.06,24.06,0,0,1-.4,4.63,9.59,9.59,0,0,1-1.45,3.61,7.87,7.87,0,0,1-2.82,2.51,13.12,13.12,0,0,1-4.53,1.36l15.62,22.24H286.68L271,251.18h-3.5v15h-14.7V218.81h30.65A25.61,25.61,0,0,1,290.42,219.61Zm-7.84,19.13V235a4.4,4.4,0,0,0-.73-2.68,3.64,3.64,0,0,0-2.78-1.09H267.49v7.48Z"/><path class="cls-2" d="M379.42,218.81v12.45h-15v41.83h-14.7V231.26H334.87V218.81Z"/><path class="cls-2" d="M417.68,249a2.42,2.42,0,0,1-1.66-.9,2.64,2.64,0,0,1-.86-1.82c0-1.8.07-3.73.2-5.79a25.23,25.23,0,0,1,1.19-6.15,18.9,18.9,0,0,1,3.15-5.86,19.2,19.2,0,0,1,6.05-4.93,36.42,36.42,0,0,1,9.9-3.44,70.12,70.12,0,0,1,14.66-1.3h11v12.58h-5.23l-2.78,0c-1.24,0-2.63.09-4.17.2s-3.12.27-4.73.47a34.3,34.3,0,0,0-4.47.82,14.87,14.87,0,0,0-3.41,1.29,2.56,2.56,0,0,0-1.49,1.89.48.48,0,0,1-.13.3c-.09.11-.11.19-.07.23h16.42q10.06,0,10.06,7.55v13.17q0,4.56-2.62,6.69t-7.84,2.11H415.16V253.76H446.6V249Z"/></g></g></svg>